testWalking_myEMG.mot
nRows=52
nColumns=9

name testWalking_myEMG.mot
datacolumns 9
datarows 52
range 0.3787037037 0.4259259259
endheader
time	VASMED.Raw	VASMED.Processed	GAS.Raw	GAS.Processed	SOL.Raw	SOL.Processed	HAMLAT.Raw	HAMLAT.Processed
        0.3787037037	    -3271.6101074219	3282958677.1903462000	     -146.4899902344	 36631055.5281428690	   -78372.1484375000	2280093047.6333923000	    -4492.3603515625	 16092109.1735546590	
        0.3796296296	    41700.8164062500	1961333875.2942238000	    -5957.2597656250	 35767915.0571217830	   -86819.7421875000	7647519019.1156616000	     2392.6699218750	 15991963.9347019200	
        0.3805555556	    67971.3593750000	1769354484.1213379000	     1904.3699951172	  1590374.1323584467	  -193757.4375000000	44057914102.6116940000	    -4834.1699218750	 23018696.6400713920	
        0.3814814815	    68362.0000000000	1264707700.6977539000	     -341.8099975586	  2951848.7198969238	    75051.7031250000	15671065319.2265620000	      146.4899902344	 13905639.0609592800	
        0.3824074074	    50148.4062500000	902552356.5087890600	     1611.3900146484	   190749.3981507570	    51808.6289062500	140780447.7919464100	    -2880.9699707031	  8671949.4828215837	
        0.3833333333	    23584.8906250000	418354103.8917236300	    -8154.6098632813	 82313181.2056856160	    33888.0195312500	2084706059.8545532000	    -2539.1599121094	 14887999.0201016660	
        0.3842592593	    19434.3398437500	1060717590.3735199000	    -9814.8300781250	 31824174.6419148450	    62404.7382812500	1703459789.1130676000	     2929.8000488281	 19990549.6415503620	
        0.3851851852	    60988.6718750000	2247751992.1172485000	    -7910.4599609375	 28962923.4738874440	    64650.9179687500	561738155.4271392800	     4492.3603515625	  7858876.2874650955	
        0.3861111111	    75735.3281250000	 20910722.3745117190	    -9326.5292968750	  3788773.3042764664	    75979.4765625000	7187173985.9472809000	     9570.6796875000	 65713199.1398673060	
        0.3870370370	    93704.7656250000	2752588821.2523193000	   -11475.0498046875	  9170282.8065671921	   -21875.8398437500	6859885779.7382965000	     5761.9399414063	 33629136.8979547020	
        0.3879629630	    79592.8984375000	2642517423.1412354000	   -13135.2705078125	219042444.6836574100	   -83987.5937500000	7072075255.6720924000	     6982.6899414063	  6273276.5529427528	
        0.3888888889	    39405.8085937500	1389583870.1195717000	     4052.8898925781	103014280.2806111000	      830.1099243164	3896747575.1583238000	     7373.3295898438	  5984772.5720593929	
        0.3898148148	     2050.8598632813	1370377856.8439028000	     6592.0502929688	  9582775.0822768211	    46388.5000000000	2133287704.4572315000	     8642.9101562500	 78300292.7177236380	
        0.3907407407	   -34669.3007812500	1284378506.2434063000	    13086.4404296875	 64709397.4356102940	    22412.9687500000	426370554.6025390600	     -488.2999877930	 18385868.3976346590	
        0.3916666667	   -40187.0898437500	831241192.1406402600	    16162.7294921875	 75281653.1804466250	    20020.3007812500	796994409.9745025600	    -2099.6899414063	   498333.1330030263	
        0.3925925926	   -70559.3515625000	1232523488.3471069000	    14209.5302734375	 69583013.7315931320	   -17676.4609375000	125503622.2393646200	    -8008.1196289063	 56132806.9439467190	
        0.3935185185	   -93216.4687500000	4851120010.2761841000	    16797.5195312500	 79552059.3376169200	    21875.8398437500	2104711097.7710114000	    -3808.7399902344	  6218433.1269982457	
        0.3944444444	   -54396.6171875000	2098709369.5985107000	    14258.3603515625	201660394.2242281700	    91995.7187500000	7750724667.1418533000	    -2587.9899902344	 26783614.4126427770	
        0.3953703704	    -9228.8691406250	1423890092.2722054000	       97.6599960327	249958176.7123148100	    32569.6113281250	1707649320.1669197000	     5273.6396484375	 42091260.5308806900	
        0.3962962963	    24610.3183593750	786827334.6067619300	   -17529.9707031250	309464879.7561895300	    -7031.5200195313	1469646409.7751276000	     5517.7900390625	  2515505.2220625877	
        0.3972222222	    19629.6601562500	206267004.7947959900	   -22168.8203125000	259483724.3095245400	   -43605.1914062500	905700262.1699371300	     6250.2397460938	 33676823.2662132980	
        0.3981481481	     7275.6699218750	306942197.5848617600	   -13232.9296875000	223823087.5929145800	  -141607.0000000000	17499581983.4287870000	      976.5999755859	 34220459.3446561250	
        0.3990740741	   -12939.9501953125	391263005.9285821900	     2197.3500976563	200651783.5232904000	   -58547.1679687500	1288033734.1241302000	    -5322.4697265625	 29425493.7425890860	
        0.4000000000	   -30762.8984375000	284800865.4472274800	   -15527.9394531250	266653495.7996659300	   -33302.0585937500	517663188.5535583500	    -1123.0900878906	 18414480.4868209960	
        0.4009259259	   -51125.0078125000	1587796482.8987122000	   -11621.5400390625	153066910.5865774200	   -27784.2695312500	 83383757.3324356080	     3222.7800292969	 17789777.4601444600	
        0.4018518519	   -33350.8867187500	178374769.0973968500	   -18555.3984375000	111636084.0510063200	   -25684.5800781250	  7122111.9032783508	     6592.0502929688	 40307760.1670992080	
        0.4027777778	   -25245.1093750000	185088918.7641906700	   -20020.3007812500	804009183.1614074700	   -23487.2304687500	 29911946.3422737120	      976.5999755859	 37994918.1401551810	
        0.4037037037	   -24659.1484375000	198124429.9973754900	    21729.3496093750	342144990.5185527800	   -20313.2792968750	 63977366.3979644780	     5908.4296875000	 33335857.9231662600	
        0.4046296296	   -31934.8203125000	610436653.4675598100	    -6494.3901367188	804006827.3485186100	   -14844.3193359375	 23652944.4091482160	     1611.3900146484	 13559904.9171672910	
        0.4055555556	   -16602.1992187500	1046718906.0398712000	   -35059.9414062500	1217783132.8444371000	   -12012.1796875000	280468517.2391014100	     2734.4799804688	 13221325.6375261250	
        0.4064814815	   -41407.8398437500	612887779.1881256100	    -1757.8800048828	297550167.3795492600	   -28614.3789062500	 54501882.2511444090	    -3564.5900878906	   288510.8476019502	
        0.4074074074	   -66359.9687500000	3044898624.3293762000	     8398.7597656250	144874245.9641909600	   -63625.4882812500	3581524566.1063347000	     4541.1894531250	 36461765.6171109680	
        0.4083333333	   -32813.7578125000	431911609.4233398400	    42286.7773437500	1537593457.8598404000	   -16309.2197265625	1542898898.3973322000	     4443.5302734375	 14423050.9018297200	
        0.4092592593	    -9717.1699218750	504611097.8873558000	    29835.1289062500	798923352.8479919400	    20069.1308593750	1043058894.7427788000	     1171.9199218750	 25457907.5235280990	
        0.4101851852	    12500.4794921875	748424766.3081674600	    39942.9414062500	572730323.6878662100	    39259.3203125000	374143273.8109359700	    -5420.1298828125	 38762682.8764305110	
        0.4111111111	    60939.8398437500	2558179914.4816437000	    34278.6601562500	804447945.8283386200	    58156.5273437500	1135419538.6369171000	    -8008.1196289063	 71805263.0229076150	
        0.4120370370	    92435.1875000000	2503608452.8509216000	     9277.6992187500	 72937846.4821243290	    57228.7578125000	189404683.7721405000	     1416.0699462891	 10507912.8062327360	
        0.4129629630	    99124.8984375000	505140848.9190063500	     4638.8496093750	 81318893.2184200290	    59572.5976562500	866193312.5784759500	    -1562.5599365234	  2234153.4826250523	
        0.4138888889	   100833.9453125000	4368842918.7167969000	    -6445.5600585938	  4396781.8565590382	    46876.8007812500	126276275.8247528100	      146.4899902344	  3640930.9202322364	
        0.4148148148	    58498.3359375000	1152219783.3738098000	     8008.1196289063	 89308915.1743149760	    34766.9609375000	506020379.0524559000	    -2343.8398437500	  4577987.6537822485	
        0.4157407407	    22510.6289062500	378187089.5699043300	     3906.3999023438	 30510382.9356293080	    14990.8095703125	138143163.0257196400	     6250.2397460938	 44559082.0968000890	
        0.4166666667	     2197.3500976563	121342912.0181810900	    -1904.3699951172	 37770788.0934813170	     2490.3300781250	167282547.3388586000	     2343.8398437500	 43033086.9592795370	
        0.4175925926	    -5175.9799804688	 86233084.4719650750	    -8740.5703125000	 68028434.1982675790	    11572.7099609375	 86380915.8644914630	     7763.9697265625	 51237700.0609273910	
        0.4185185185	   -27051.8183593750	525057011.4688320200	    -4394.7001953125	 88240719.2098836900	    19092.5292968750	201700899.8976707500	     3857.5698242188	 20376812.4879243370	
        0.4194444444	   -39942.9414062500	462071887.7079544100	   -12305.1591796875	102489689.4049787500	    48927.6562500000	819280820.6142425500	     4541.1894531250	 13841256.7877402900	
        0.4203703704	   -41896.1367187500	782029774.4720077500	   -11133.2402343750	 40085979.8534059520	    82473.8671875000	248405768.1820678700	     1757.8800048828	  7081575.1805833727	
        0.4212962963	   -24366.1699218750	354353004.7404155700	   -13330.5888671875	 58104657.3531084060	   144097.3281250000	16225386760.3965150000	     -878.9400024414	  2575118.3011311032	
        0.4222222222	    -5713.1098632813	177795228.0278894900	   -10742.5996093750	 29754533.4775543210	    55031.4101562500	22842599734.9870760000	    -1025.4299316406	  1309018.3694529831	
        0.4231481481	     5957.2597656250	108021443.0015387500	   -10889.0898437500	 40369739.4962291720	  -137505.2812500000	24429864908.2005310000	      292.9799804688	  3490715.5207393765	
        0.4240740741	    12695.7998046875	142566181.7982459100	   -14795.4892578125	 82787658.0976610180	  -100345.6484375000	1985132662.8432007000	     3320.4396972656	 12327185.1959014530	
        0.4250000000	     3125.1198730469	 62766124.8654918070	   -12500.4794921875	 32720692.5397043230	   -58791.3164062500	791775289.9512786900	    -4443.5302734375	 17637179.4484871770	
        0.4259259259	     5713.1098632813	 37828010.3525107800	    -8349.9296875000	 71552520.9049293990	   -42335.6093750000	4063090858.9144287000	      634.7899780273	  1549839.9384878539	
